<?xml version="1.0" encoding="UTF-8" standalone="no"?>
<svg
   version="1.1"
   id="Layer_1"
   viewBox="0 0 32 32"
   xml:space="preserve"
   width="800px"
   height="800px"
   fill="#000000"
   inkscape:version="1.3.2 (091e20e, 2023-11-25, custom)"
   sodipodi:docname="icon.svg"
   inkscape:export-filename="icon-512.png"
   inkscape:export-xdpi="61.439999"
   inkscape:export-ydpi="61.439999"
   xmlns:inkscape="http://www.inkscape.org/namespaces/inkscape"
   xmlns:sodipodi="http://sodipodi.sourceforge.net/DTD/sodipodi-0.dtd"
   xmlns="http://www.w3.org/2000/svg"
   xmlns:svg="http://www.w3.org/2000/svg"><defs
   id="defs6" /><sodipodi:namedview
   id="namedview6"
   pagecolor="#ffffff"
   bordercolor="#666666"
   borderopacity="1.0"
   inkscape:showpageshadow="2"
   inkscape:pageopacity="0.0"
   inkscape:pagecheckerboard="0"
   inkscape:deskcolor="#d1d1d1"
   showgrid="false"
   inkscape:zoom="0.621875"
   inkscape:cx="422.11055"
   inkscape:cy="505.72864"
   inkscape:current-layer="Layer_1" />

<circle
   style="fill:#4f4eff;fill-opacity:1;fill-rule:nonzero;stroke:none;stroke-width:0.912046;stroke-dasharray:none;stroke-opacity:1;paint-order:stroke fill markers"
   id="path8"
   cx="16"
   cy="16"
   r="16" /><g
   stroke-width="0"
   id="g1" />

<g
   stroke-linecap="round"
   stroke-linejoin="round"
   id="g2" />

<g
   id="g3"> <path
   style="fill:none;stroke:#000000;stroke-width:2;stroke-linecap:round;stroke-miterlimit:10;"
   d="M8.383,17.101 c0,0.877,0.669,2.185,1.524,2.271C10.625,22.983,12.996,25.957,16,26c2.982,0.042,5.417-3.017,6.094-6.629 c0.853-0.087,1.52-1.395,1.52-2.271"
   id="path1" /> <path
   style="fill:none;stroke:#000000;stroke-width:2;stroke-linecap:round;stroke-miterlimit:10;"
   d="M8.84,18.966 c0,0-1.958,0.699-3.84,3.264L9,25l-1,2h16l-1-2l4-2.769c-1.882-2.565-3.84-3.264-3.84-3.264"
   id="path2" /> <path
   d="M11.77,18.368c-0.031,1.019,0.666,2.029,1.915,2.105c0.881,0.054,1.891-0.39,1.891-1.635c0-0.864-0.678-0.995-1.891-1.088 S11.794,17.578,11.77,18.368z"
   id="path3" /> <path
   d="M20.23,18.368c0.031,1.019-0.666,2.029-1.915,2.105c-0.881,0.054-1.891-0.39-1.891-1.635c0-0.864,0.678-0.995,1.891-1.088 S20.206,17.578,20.23,18.368z"
   id="path4" /> <path
   style="fill:none;stroke:#000000;stroke-width:2;stroke-linecap:round;stroke-miterlimit:10;"
   d="M9.154,11.763 C6.625,12.405,5,13.391,5,14.5C5,16.433,9.925,18,16,18s11-1.567,11-3.5c0-1.111-1.631-2.098-4.166-2.74"
   id="path5" /> <path
   style="fill:none;stroke:#000000;stroke-width:2;stroke-linecap:round;stroke-miterlimit:10;"
   d="M18.939,5 C18.269,5,17.23,5.5,16,5.5S13.75,5,13.061,5C10.877,5,9.817,9.295,9,12.337C9,13.938,13.125,14,16,14s7,0,7-1.662 C22.063,9.122,21.123,5,18.939,5z"
   id="path6" /> </g>

</svg>
